<?xml version="1.0" standalone="no"?>
<!DOCTYPE svg PUBLIC "-//W3C//DTD SVG 1.1//EN" 
"http://www.w3.org/Graphics/SVG/1.1/DTD/svg11.dtd">

<svg width = "1100" height = "600" version="1.1" 
     xmlns="http://www.w3.org/2000/svg">

  <rect x = "200" y = "498" width="250" height="5"
	style="stroke-width:1; stroke:rgb(0,0,0)" />
  <rect x = "200" y = "248" width="250" height="5"
	style="stroke-width:1; stroke:rgb(0,0,0)" />
  <rect x = "650" y = "498" width="250" height="5"
	style="stroke-width:1; stroke:rgb(0,0,0)" />
  <rect x = "60" y = "248" width="150" height="5"
	style="stroke-width:1; stroke:rgb(0,0,0)" />
  <rect x = "288" y = "450" width="5" height="50"
	style="stroke-width:1; stroke:rgb(0,0,0)" />
  <rect x = "828" y = "450" width="5" height="50"
	style="stroke-width:1; stroke:rgb(0,0,0)" />
  <rect x = "133" y = "200" width="5" height="50"
	style="stroke-width:1; stroke:rgb(0,0,0)" />

  <rect x = "650" y = "165" width="177" height="5"
	style="stroke-width:1; stroke:rgb(0,0,0)" />
  <rect x = "823" y = "150" width="5" height="15"
	style="stroke-width:1; stroke:rgb(0,0,0)" />

  <rect x = "650" y = "340" width="78" height="5"
	style="stroke-width:1; stroke:rgb(0,0,0)" />
  <rect x = "723" y = "325" width="5" height="15"
	style="stroke-width:1; stroke:rgb(0,0,0)" />

  <rect x = "650" y = "415" width="78" height="5"
	style="stroke-width:1; stroke:rgb(0,0,0)" />
  <rect x = "723" y = "400" width="5" height="15"
	style="stroke-width:1; stroke:rgb(0,0,0)" />

  <rect x = "60" y = "98" width="77" height="5"
	style="stroke-width:1; stroke:rgb(0,0,0)" />
  <rect x = "133" y = "85" width="5" height="15"
	style="stroke-width:1; stroke:rgb(0,0,0)" />

</svg>